<svg xmlns="http://www.w3.org/2000/svg" width="96" height="96" viewBox="0 0 96 96" version="1.1"><path d="M 43.870 11.034 C 41.874 12.666, 37.608 15.586, 34.390 17.524 C 29.029 20.752, 26.712 21.626, 18.750 23.419 C 16.167 24.001, 16 24.365, 16 29.431 C 16 40.668, 20.310 56.520, 26.168 66.836 C 29.863 73.340, 39.922 83.874, 44.894 86.445 C 48.874 88.503, 50.415 88.010, 56.873 82.610 C 69.969 71.658, 78.239 53.603, 79.684 32.805 L 80.289 24.111 77.394 23.510 C 66.391 21.226, 61.484 18.960, 53.551 12.499 C 50.514 10.024, 47.909 8.015, 47.764 8.034 C 47.619 8.052, 45.867 9.402, 43.870 11.034 M 44 32 C 44 33.100, 43.077 34.923, 41.949 36.051 C 40.001 37.999, 39.003 38.037, 34.450 36.332 C 33.872 36.116, 32.659 37.492, 31.754 39.390 C 30.139 42.775, 30.155 42.871, 32.554 44.444 C 35.698 46.504, 35.672 49.330, 32.490 51.415 C 30.053 53.011, 30.026 53.150, 31.576 56.147 C 33.008 58.917, 33.528 59.176, 36.640 58.671 C 40.570 58.033, 44 60.517, 44 64 C 44 65.667, 44.667 66, 48 66 C 51.333 66, 52 65.667, 52 64 C 52 62.900, 52.923 61.077, 54.051 59.949 C 55.999 58.001, 56.997 57.963, 61.550 59.668 C 62.128 59.884, 63.341 58.508, 64.246 56.610 C 65.861 53.225, 65.845 53.129, 63.446 51.556 C 60.302 49.496, 60.328 46.670, 63.510 44.585 C 65.947 42.989, 65.974 42.850, 64.424 39.853 C 62.992 37.083, 62.472 36.824, 59.360 37.329 C 55.430 37.967, 52 35.483, 52 32 C 52 30.333, 51.333 30, 48 30 C 44.667 30, 44 30.333, 44 32 M 44 44 C 42.900 45.100, 42 46.900, 42 48 C 42 49.100, 42.900 50.900, 44 52 C 45.100 53.100, 46.900 54, 48 54 C 50.576 54, 54 50.576, 54 48 C 54 46.900, 53.100 45.100, 52 44 C 50.900 42.900, 49.100 42, 48 42 C 46.900 42, 45.100 42.900, 44 44" stroke="none" fill="#fac204" fill-rule="evenodd"/></svg>